<mxfile host="65bd71144e">
    <diagram id="CEmuBBTENYYGRC-ch8lV" name="PÃ¡gina-1">
        <mxGraphModel dx="1433" dy="401" grid="1" gridSize="10" guides="1" tooltips="1" connect="1" arrows="1" fold="1" page="1" pageScale="1" pageWidth="827" pageHeight="1169" math="0" shadow="0">
            <root>
                <mxCell id="0"/>
                <mxCell id="1" parent="0"/>
                <mxCell id="2" value="" style="edgeStyle=none;html=1;" edge="1" parent="1" source="3" target="5">
                    <mxGeometry relative="1" as="geometry"/>
                </mxCell>
                <mxCell id="3" value="INICIO" style="ellipse;whiteSpace=wrap;html=1;fillColor=#60a917;fontColor=#ffffff;strokeColor=#2D7600;" vertex="1" parent="1">
                    <mxGeometry x="260" y="60" width="120" height="80" as="geometry"/>
                </mxCell>
                <mxCell id="4" value="" style="edgeStyle=none;html=1;" edge="1" parent="1" source="5" target="7">
                    <mxGeometry relative="1" as="geometry"/>
                </mxCell>
                <mxCell id="5" value="a,b,c" style="shape=parallelogram;perimeter=parallelogramPerimeter;whiteSpace=wrap;html=1;fixedSize=1;fillColor=#008a00;fontColor=#ffffff;strokeColor=#005700;" vertex="1" parent="1">
                    <mxGeometry x="260" y="190" width="120" height="60" as="geometry"/>
                </mxCell>
                <mxCell id="6" value="" style="edgeStyle=none;html=1;" edge="1" parent="1" source="7" target="8">
                    <mxGeometry relative="1" as="geometry"/>
                </mxCell>
                <mxCell id="7" value="p1=a+b&lt;br&gt;p2=a+c&lt;br&gt;p3=b+c" style="rounded=0;whiteSpace=wrap;html=1;fillColor=#1ba1e2;fontColor=#ffffff;strokeColor=#006EAF;" vertex="1" parent="1">
                    <mxGeometry x="260" y="300" width="120" height="60" as="geometry"/>
                </mxCell>
                <mxCell id="8" value="p1=c" style="rhombus;whiteSpace=wrap;html=1;fillColor=#0050ef;fontColor=#ffffff;strokeColor=#001DBC;" vertex="1" parent="1">
                    <mxGeometry x="280" y="400" width="80" height="80" as="geometry"/>
                </mxCell>
                <mxCell id="9" value="" style="endArrow=none;html=1;" edge="1" parent="1">
                    <mxGeometry width="50" height="50" relative="1" as="geometry">
                        <mxPoint x="121" y="440" as="sourcePoint"/>
                        <mxPoint x="280" y="440" as="targetPoint"/>
                    </mxGeometry>
                </mxCell>
                <mxCell id="10" value="" style="endArrow=classic;html=1;" edge="1" parent="1">
                    <mxGeometry width="50" height="50" relative="1" as="geometry">
                        <mxPoint x="121" y="440" as="sourcePoint"/>
                        <mxPoint x="121" y="500" as="targetPoint"/>
                    </mxGeometry>
                </mxCell>
                <mxCell id="11" value="c es la suma de a+b" style="rounded=0;whiteSpace=wrap;html=1;fillColor=#6a00ff;fontColor=#ffffff;strokeColor=#3700CC;" vertex="1" parent="1">
                    <mxGeometry x="380" y="490" width="120" height="60" as="geometry"/>
                </mxCell>
                <mxCell id="12" value="" style="endArrow=none;html=1;" edge="1" parent="1">
                    <mxGeometry width="50" height="50" relative="1" as="geometry">
                        <mxPoint x="360" y="439.5" as="sourcePoint"/>
                        <mxPoint x="440" y="440" as="targetPoint"/>
                    </mxGeometry>
                </mxCell>
                <mxCell id="13" value="" style="endArrow=classic;html=1;" edge="1" parent="1">
                    <mxGeometry width="50" height="50" relative="1" as="geometry">
                        <mxPoint x="439.5" y="440" as="sourcePoint"/>
                        <mxPoint x="440" y="490" as="targetPoint"/>
                    </mxGeometry>
                </mxCell>
                <mxCell id="14" value="p2=b" style="rhombus;whiteSpace=wrap;html=1;fillColor=#d80073;fontColor=#ffffff;strokeColor=#A50040;" vertex="1" parent="1">
                    <mxGeometry x="80" y="500" width="80" height="80" as="geometry"/>
                </mxCell>
                <mxCell id="15" value="" style="endArrow=none;html=1;" edge="1" parent="1">
                    <mxGeometry width="50" height="50" relative="1" as="geometry">
                        <mxPoint x="160" y="539.5" as="sourcePoint"/>
                        <mxPoint x="240" y="540" as="targetPoint"/>
                    </mxGeometry>
                </mxCell>
                <mxCell id="16" value="" style="endArrow=classic;html=1;" edge="1" parent="1">
                    <mxGeometry width="50" height="50" relative="1" as="geometry">
                        <mxPoint x="240" y="540" as="sourcePoint"/>
                        <mxPoint x="240.5" y="590" as="targetPoint"/>
                    </mxGeometry>
                </mxCell>
                <mxCell id="17" value="b es la suma de a+c" style="rounded=0;whiteSpace=wrap;html=1;fillColor=#a20025;fontColor=#ffffff;strokeColor=#6F0000;" vertex="1" parent="1">
                    <mxGeometry x="180" y="590" width="120" height="60" as="geometry"/>
                </mxCell>
                <mxCell id="18" value="" style="endArrow=none;html=1;" edge="1" parent="1">
                    <mxGeometry width="50" height="50" relative="1" as="geometry">
                        <mxPoint x="-79" y="540" as="sourcePoint"/>
                        <mxPoint x="80" y="540" as="targetPoint"/>
                    </mxGeometry>
                </mxCell>
                <mxCell id="19" value="" style="endArrow=classic;html=1;" edge="1" parent="1">
                    <mxGeometry width="50" height="50" relative="1" as="geometry">
                        <mxPoint x="-79" y="540" as="sourcePoint"/>
                        <mxPoint x="-79" y="600" as="targetPoint"/>
                    </mxGeometry>
                </mxCell>
                <mxCell id="20" value="p3=a" style="rhombus;whiteSpace=wrap;html=1;fillColor=#e51400;fontColor=#ffffff;strokeColor=#B20000;" vertex="1" parent="1">
                    <mxGeometry x="-120" y="600" width="80" height="80" as="geometry"/>
                </mxCell>
                <mxCell id="21" value="" style="endArrow=none;html=1;" edge="1" parent="1">
                    <mxGeometry width="50" height="50" relative="1" as="geometry">
                        <mxPoint x="-40" y="640" as="sourcePoint"/>
                        <mxPoint x="40" y="640.5" as="targetPoint"/>
                    </mxGeometry>
                </mxCell>
                <mxCell id="22" value="" style="endArrow=classic;html=1;" edge="1" parent="1">
                    <mxGeometry width="50" height="50" relative="1" as="geometry">
                        <mxPoint x="40" y="640.5" as="sourcePoint"/>
                        <mxPoint x="40.5" y="690.5" as="targetPoint"/>
                    </mxGeometry>
                </mxCell>
                <mxCell id="23" value="a es la suma de b+c" style="rounded=0;whiteSpace=wrap;html=1;fillColor=#fa6800;fontColor=#000000;strokeColor=#C73500;" vertex="1" parent="1">
                    <mxGeometry x="-10" y="690" width="120" height="60" as="geometry"/>
                </mxCell>
                <mxCell id="24" value="" style="endArrow=none;html=1;" edge="1" parent="1">
                    <mxGeometry width="50" height="50" relative="1" as="geometry">
                        <mxPoint x="-201" y="639.5" as="sourcePoint"/>
                        <mxPoint x="-121" y="640" as="targetPoint"/>
                    </mxGeometry>
                </mxCell>
                <mxCell id="25" value="" style="endArrow=classic;html=1;" edge="1" parent="1">
                    <mxGeometry width="50" height="50" relative="1" as="geometry">
                        <mxPoint x="-200" y="640" as="sourcePoint"/>
                        <mxPoint x="-199.5" y="690" as="targetPoint"/>
                    </mxGeometry>
                </mxCell>
                <mxCell id="26" value="ninguna es suma de las otras dos" style="rounded=0;whiteSpace=wrap;html=1;fillColor=#f0a30a;fontColor=#000000;strokeColor=#BD7000;" vertex="1" parent="1">
                    <mxGeometry x="-260" y="690" width="120" height="60" as="geometry"/>
                </mxCell>
                <mxCell id="27" value="" style="endArrow=none;html=1;" edge="1" parent="1">
                    <mxGeometry width="50" height="50" relative="1" as="geometry">
                        <mxPoint x="-200" y="910" as="sourcePoint"/>
                        <mxPoint x="-200" y="750" as="targetPoint"/>
                    </mxGeometry>
                </mxCell>
                <mxCell id="28" value="" style="endArrow=none;html=1;" edge="1" parent="1">
                    <mxGeometry width="50" height="50" relative="1" as="geometry">
                        <mxPoint x="40" y="909.9999999999998" as="sourcePoint"/>
                        <mxPoint x="40" y="750" as="targetPoint"/>
                    </mxGeometry>
                </mxCell>
                <mxCell id="29" value="" style="endArrow=none;html=1;" edge="1" parent="1">
                    <mxGeometry width="50" height="50" relative="1" as="geometry">
                        <mxPoint x="240" y="910" as="sourcePoint"/>
                        <mxPoint x="240" y="650" as="targetPoint"/>
                    </mxGeometry>
                </mxCell>
                <mxCell id="30" value="" style="endArrow=none;html=1;" edge="1" parent="1">
                    <mxGeometry width="50" height="50" relative="1" as="geometry">
                        <mxPoint x="439" y="910" as="sourcePoint"/>
                        <mxPoint x="439.28999999999996" y="550" as="targetPoint"/>
                    </mxGeometry>
                </mxCell>
                <mxCell id="31" value="" style="endArrow=none;html=1;" edge="1" parent="1">
                    <mxGeometry width="50" height="50" relative="1" as="geometry">
                        <mxPoint x="-200" y="910" as="sourcePoint"/>
                        <mxPoint x="440" y="910" as="targetPoint"/>
                    </mxGeometry>
                </mxCell>
                <mxCell id="32" value="" style="endArrow=classic;html=1;" edge="1" parent="1">
                    <mxGeometry width="50" height="50" relative="1" as="geometry">
                        <mxPoint x="90" y="910" as="sourcePoint"/>
                        <mxPoint x="90" y="980" as="targetPoint"/>
                    </mxGeometry>
                </mxCell>
                <mxCell id="33" value="" style="edgeStyle=none;html=1;" edge="1" parent="1" source="34" target="35">
                    <mxGeometry relative="1" as="geometry"/>
                </mxCell>
                <mxCell id="34" value="resultado" style="shape=document;whiteSpace=wrap;html=1;boundedLbl=1;fillColor=#6d8764;fontColor=#ffffff;strokeColor=#3A5431;" vertex="1" parent="1">
                    <mxGeometry x="30" y="980" width="120" height="80" as="geometry"/>
                </mxCell>
                <mxCell id="35" value="FIN" style="ellipse;whiteSpace=wrap;html=1;fillColor=#76608a;fontColor=#ffffff;strokeColor=#432D57;" vertex="1" parent="1">
                    <mxGeometry x="30" y="1100" width="120" height="80" as="geometry"/>
                </mxCell>
                <mxCell id="36" value="no" style="text;html=1;strokeColor=none;fillColor=none;align=center;verticalAlign=middle;whiteSpace=wrap;rounded=0;" vertex="1" parent="1">
                    <mxGeometry x="170" y="400" width="60" height="30" as="geometry"/>
                </mxCell>
                <mxCell id="37" value="si" style="text;html=1;strokeColor=none;fillColor=none;align=center;verticalAlign=middle;whiteSpace=wrap;rounded=0;" vertex="1" parent="1">
                    <mxGeometry x="370" y="400" width="60" height="30" as="geometry"/>
                </mxCell>
                <mxCell id="38" value="no" style="text;html=1;strokeColor=none;fillColor=none;align=center;verticalAlign=middle;whiteSpace=wrap;rounded=0;" vertex="1" parent="1">
                    <mxGeometry x="-20" y="505" width="60" height="30" as="geometry"/>
                </mxCell>
                <mxCell id="39" value="si" style="text;html=1;strokeColor=none;fillColor=none;align=center;verticalAlign=middle;whiteSpace=wrap;rounded=0;" vertex="1" parent="1">
                    <mxGeometry x="170" y="505" width="60" height="30" as="geometry"/>
                </mxCell>
                <mxCell id="40" value="si" style="text;html=1;strokeColor=none;fillColor=none;align=center;verticalAlign=middle;whiteSpace=wrap;rounded=0;" vertex="1" parent="1">
                    <mxGeometry x="-30" y="605" width="60" height="30" as="geometry"/>
                </mxCell>
                <mxCell id="41" value="no" style="text;html=1;strokeColor=none;fillColor=none;align=center;verticalAlign=middle;whiteSpace=wrap;rounded=0;" vertex="1" parent="1">
                    <mxGeometry x="-200" y="590" width="60" height="30" as="geometry"/>
                </mxCell>
            </root>
        </mxGraphModel>
    </diagram>
</mxfile>